<?xml version="1.0" encoding="UTF-8" standalone="no"?>
<!-- Created by Yingtong Li/RunasSudo -->

<svg
   xmlns:dc="http://purl.org/dc/elements/1.1/"
   xmlns:cc="http://creativecommons.org/ns#"
   xmlns:rdf="http://www.w3.org/1999/02/22-rdf-syntax-ns#"
   xmlns:svg="http://www.w3.org/2000/svg"
   xmlns="http://www.w3.org/2000/svg"
   xmlns:xlink="http://www.w3.org/1999/xlink"
   xmlns:sodipodi="http://sodipodi.sourceforge.net/DTD/sodipodi-0.dtd"
   xmlns:inkscape="http://www.inkscape.org/namespaces/inkscape"
   width="399.26279"
   height="403.55594"
   id="svg3842"
   version="1.1"
   inkscape:version="0.48.3.1 r9886"
   sodipodi:docname="Dota2-Filled.svg"
   inkscape:export-filename="/home/runassudo/Pictures/Dota2-Filled.png"
   inkscape:export-xdpi="90"
   inkscape:export-ydpi="90">
  <defs
     id="defs3844">
    <linearGradient
       id="linearGradient4381">
      <stop
         style="stop-color:#bb3119;stop-opacity:1;"
         offset="0"
         id="stop4383" />
      <stop
         style="stop-color:#812112;stop-opacity:1;"
         offset="1"
         id="stop4385" />
    </linearGradient>
    <linearGradient
       inkscape:collect="always"
       xlink:href="#linearGradient4381"
       id="linearGradient4387"
       x1="297.72574"
       y1="81.647881"
       x2="294.41711"
       y2="486.64789"
       gradientUnits="userSpaceOnUse" />
  </defs>
  <sodipodi:namedview
     id="base"
     pagecolor="#ffffff"
     bordercolor="#666666"
     borderopacity="1.0"
     inkscape:pageopacity="0.0"
     inkscape:pageshadow="2"
     inkscape:zoom="0.98994949"
     inkscape:cx="222.24668"
     inkscape:cy="130.86831"
     inkscape:document-units="px"
     inkscape:current-layer="layer1"
     showgrid="false"
     inkscape:window-width="1535"
     inkscape:window-height="876"
     inkscape:window-x="65"
     inkscape:window-y="24"
     inkscape:window-maximized="1"
     fit-margin-top="0"
     fit-margin-left="0"
     fit-margin-right="0"
     fit-margin-bottom="0" />
  <metadata
     id="metadata3847">
    <rdf:RDF>
      <cc:Work
         rdf:about="">
        <dc:format>image/svg+xml</dc:format>
        <dc:type
           rdf:resource="http://purl.org/dc/dcmitype/StillImage" />
        <dc:title></dc:title>
      </cc:Work>
    </rdf:RDF>
  </metadata>
  <g
     inkscape:label="Layer 1"
     inkscape:groupmode="layer"
     id="layer1"
     transform="translate(-100.3686,-82.012784)">
    <path
       style="fill:url(#linearGradient4387);fill-opacity:1;stroke:none"
       d="m 107.65046,89.488714 c 0,0 12.5,12.857136 27.5,-2.5 l 2.34125,4.36798 10.85914,0.50507 2.52538,2.02031 1.51523,-4.04061 1.51523,0.25254 2.77792,3.78807 2.0203,-2.27285 4.54569,0.25254 2.77792,3.03046 1.76776,-1.76777 18.18275,0.50508 4.29315,-2.52538 0.50508,2.52538 8.08122,1.01015 3.28299,-4.54568 c 0,0 4.79823,6.81853 13.38452,7.3236 8.5863,0.50508 25.75889,-0.50507 25.75889,-0.50507 0,0 5.05077,4.798216 6.81853,0 1.76777,-4.79823 0,-3.03046 0,-3.03046 l 7.07107,-0.25254 c 0,0 2.27284,1.26269 4.54569,-8.5863 l 2.52538,5.3033 1.26269,-5.55584 7.82868,0.75762 c 0,0 3.53553,2.77792 6.06092,-3.53553 0,0 19.19289,8.08122 27.52665,0.25253 0,0 5.3033,4.54569 14.14214,3.78808 8.83883,-0.75762 23.23351,6.81852 23.48605,18.182736 0,0 3.28299,-2.77792 16.66751,-2.52538 -0.25254,-1.767766 7.32361,-7.828676 0,-12.626906 0,0 6.06092,-5.55584 77.02413,2.02031 0,0 3.78808,-0.25254 0.75762,-5.3033 -3.03046,-5.05077 4.79822,-2.77792 3.03046,-3.03046 0,0 2.27284,15.65736 10.85914,6.06091 0,0 19.69797,9.34392 19.95051,0.75762 l 3.78807,2.27284 10.85914,0.25254 c 0,0 -1.26269,5.3033 11.11168,7.82868 0,0 4.54569,20.455586 -1.51523,23.738586 0,0 7.57614,36.11295 2.27284,99.24749 l -11.61675,0.25253 4.54569,11.61676 c 0,0 -11.61676,3.53553 -5.30331,14.64721 0,0 6.06092,-2.52538 1.76777,1.76777 0,0 -1.01015,4.54568 5.55584,5.80837 0,0 -3.78807,15.65737 4.04061,15.15229 0,0 -6.06091,14.14214 -1.51523,17.42513 0,0 -3.53553,6.56599 -2.27284,18.18275 0,0 -1.76777,2.0203 -5.05076,-0.75762 0,0 -6.566,5.80838 10.6066,4.04061 l 1.51523,163.39218 c 0,0 -32.32489,-18.68782 -44.69925,-6.31345 l 15.15228,1.26269 -1.01015,2.0203 -6.56599,0.25254 c 0,0 0.25254,7.32361 -4.79822,0.50508 0,0 -12.12183,11.36421 -34.59773,0.25253 0,0 -10.85914,4.54569 -19.69797,-2.27284 0,0 -6.06092,-1.26269 -7.32361,4.79823 0,0 -9.59645,-1.76777 -22.98097,2.27284 l 1.01015,-3.53554 -1.76776,0 -0.25254,4.29315 c 0,0 -2.02031,1.76777 -4.79823,0.75762 l 1.76777,-6.06092 c 0,0 -4.04061,-1.26269 -5.55584,2.52538 l 3.283,-0.75761 -1.01016,4.29315 c 0,0 -7.82868,7.82868 -17.42513,1.51523 l 9.84899,-0.75762 c 0,0 1.76777,-1.26269 1.51523,-3.03046 0,0 -38.63834,-0.50507 -37.37565,2.52539 l 3.03046,2.27284 c 0,0 -12.87944,4.79822 -18.68782,0.75761 l -0.25254,-3.78807 -2.0203,0.25254 -3.283,4.79822 c 0,0 -5.55584,-9.84898 -22.72843,-4.29314 l 1.26269,4.29314 c 0,0 -6.06092,-0.50507 -8.33376,2.27285 l -9.59645,-15.65737 c 0,0 -14.14213,6.56599 -21.2132,-1.01015 0,0 -1.26269,0.25254 -1.76777,3.78807 0,0 -5.80838,-0.25254 -8.5863,-9.09137 0,0 -4.54568,1.26269 -2.77791,9.09137 0,0 -4.79823,-5.3033 -5.05077,-8.33376 l -3.53553,3.78808 2.52538,3.03045 -1.26269,1.51523 c 0,0 -5.3033,-5.55584 -7.57614,-4.29315 l 0.25253,3.283 -2.27284,0.75761 -3.03046,-4.54568 c 0,0 -3.28299,1.76776 -3.53553,4.29315 l -1.26269,-1.76777 -1.76777,1.26269 -2.27284,0 c 0,0 -0.75762,-5.05076 -2.02031,-5.80838 l -1.26269,3.283 -4.54568,0 0,-3.03046 -4.29315,3.03046 c 0,0 -5.05077,-0.75762 -6.06092,4.04061 l -2.77792,-1.26269 c 0,0 0.50508,-5.3033 -1.51523,-7.57615 0,0 -2.77792,-1.26269 -3.28299,5.3033 0,0 -3.283,1.2627 -4.29315,-3.53553 l -2.27284,0 0.50507,6.31345 c 0,0 -1.26269,-4.54568 -11.61675,-3.28299 0,0 -11.86929,0.75761 -13.38452,-3.283 l -1.01016,6.31346 c 0,0 -0.75761,-5.55584 -11.86929,-0.50508 l -2.52538,-0.25254 0.25254,-3.28299 -1.51523,0 -1.01015,5.55583 -2.52538,-0.50507 c 0,0 2.52538,-4.29315 -0.25254,-5.3033 0,0 -4.04061,1.01015 -4.54569,5.05076 l -2.52538,-1.26269 0.25254,-5.55584 -11.61676,-1.76777 c 0,0 7.57615,-13.63706 2.02031,-58.58884 0,0 0.25254,-15.65737 2.77792,-19.69798 l 6.06091,-0.25254 1.76777,-42.93148 -7.82868,-1.26269 c 0,0 -3.53554,-15.9099 -1.51523,-51.77032 0,0 1.26269,-0.75761 4.79822,2.27284 l 1.01016,-1.76776 -3.53554,-2.02031 0.25254,-3.78807 6.81853,3.78807 0.50508,-15.15229 c 0,0 -13.8896,-6.31345 -5.05077,-28.78934 0,0 -12.37436,-38.89088 -3.78807,-129.55207 l -2.27284,-1.26269 c 0,0 -0.75762,6.06092 -4.54569,0.25254 l 0.75762,-20.455586 4.54568,0.50508 -0.50507,1.51523 -1.76777,0.50507 0.75761,9.343906 1.51523,0.25254 z"
       id="path3775"
       inkscape:connector-curvature="0" />
    <path
       style="fill:#ffffff;fill-opacity:1;stroke:none"
       d="m 147.3407,163.33006 96.97464,103.54063 c 0,0 7.32361,-1.01015 9.59645,4.79823 2.27284,5.80837 -1.51523,0.75761 -1.51523,0.75761 l -3.03046,-2.27284 39.14341,42.4264 c 0,0 -4.79822,-13.13198 1.51523,-1.26269 6.31346,11.8693 16.41498,20.45559 16.41498,20.45559 l 1.51523,-2.27284 -5.80838,-6.56599 c 0,0 -4.29314,-5.05077 1.76777,-1.76777 l 7.57614,9.84899 c 0,0 -1.76776,5.55584 4.04061,10.35406 l -1.26269,-4.04061 c 0,0 5.05077,2.77792 9.34392,11.36422 l -0.25254,-3.283 4.29315,4.04061 -1.76777,2.27284 40.4061,43.18403 c 0,0 9.34391,22.22335 59.85154,18.94036 0,0 23.99112,-30.55712 26.01143,-76.26652 l -33.33504,-22.47589 -19.44543,-1.76777 0.25253,-3.283 7.32361,3.03046 2.52538,0.25254 -4.29315,-3.53554 2.02031,-2.27284 -160.36172,-109.09647 c 0,0 -10.10152,0.50507 -9.59645,-6.06092 l -4.04061,-0.25254 -2.27284,-2.27284 -2.27284,1.76777 -1.26269,-1.26269 1.51522,-2.52539 -6.31345,-3.53553 3.03046,3.78807 -1.51523,0.75762 -6.56599,-6.56599 1.51523,-1.76777 -29.7995,-20.96067 c 0,0 -13.63705,-14.6472 -41.92133,3.78808 z"
       id="path3800"
       inkscape:connector-curvature="0" />
    <path
       style="fill:#ffffff;fill-opacity:1;stroke:none"
       d="m 178.02408,324.95446 78.7919,76.14025 -55.81093,17.93021 -3.40926,-2.14658 c 0,0 -1.13643,4.79823 -6.18719,1.38896 0,0 2.14657,3.66181 4.41942,-2.65165 0,0 -0.88389,-2.0203 -2.14658,0 l -0.88388,1.89404 -0.25254,-3.6618 -2.27284,1.51523 -1.76777,-0.25254 -0.3788,3.28299 -33.33504,-24.74873 c 0,0 -4.79822,-1.76777 -1.01015,-13.25826 3.78807,-11.49048 24.24366,-55.43212 24.24366,-55.43212 z"
       id="path3802"
       inkscape:connector-curvature="0" />
    <path
       style="fill:#ffffff;fill-opacity:1;stroke:none"
       d="m 415.78874,227.09593 8.08122,-51.89658 -2.27285,0.12627 0.25254,2.0203 c 0,0 -1.01015,4.41942 -2.0203,0.50508 -1.01016,-3.91434 1.26269,-5.05077 1.26269,-5.05077 l 2.65165,0.75762 0.12627,-1.6415 -17.5514,-12.87944 c 0,0 -6.18719,-4.67196 -18.43529,-0.75762 -12.2481,3.91434 -50.25509,13.51079 -50.25509,13.51079 l 66.29126,50.88644 0.88389,-1.76777 -3.15673,-1.51523 c 0,0 -2.14657,-2.65165 1.89404,-2.52538 4.04061,0.12627 3.03045,7.70241 3.03045,7.70241 l 3.78808,0 2.14657,2.77792 z"
       id="path3804"
       inkscape:connector-curvature="0" />
  </g>
</svg>
