<?xml version="1.0" encoding="utf-8"?>
<!-- Generator: Adobe Illustrator 15.1.0, SVG Export Plug-In . SVG Version: 6.00 Build 0)  -->
<!DOCTYPE svg PUBLIC "-//W3C//DTD SVG 1.1//EN" "http://www.w3.org/Graphics/SVG/1.1/DTD/svg11.dtd">
<svg version="1.1" id="Layer_1" xmlns="http://www.w3.org/2000/svg" xmlns:xlink="http://www.w3.org/1999/xlink" x="0px" y="0px"
	 width="226px" height="70px" viewBox="0 0 226 70" enable-background="new 0 0 226 70" xml:space="preserve">
<g>
	<path fill="#FFFFFF" d="M44.557,64.336C45.167,65.251,44.766,66,43.666,66H5c-1.1,0-2-0.9-2-2V4c0-1.1,0.499-1.251,1.109-0.336
		L44.557,64.336z"/>
	<path fill="#F15A24" d="M44.557,64.336C45.167,65.251,44.766,66,43.666,66H5c-1.1,0-2-0.9-2-2V4c0-1.1,0.499-1.251,1.109-0.336
		L44.557,64.336z"/>
	<path fill="#FFFFFF" d="M77,2C59.326,2,45,16.328,45,34s14.326,32,32,32s32-14.328,32-32S94.674,2,77,2z M77,58
		c-13.256,0-24-10.745-24-24c0-13.256,10.744-24,24-24s24,10.744,24,24C101,47.255,90.256,58,77,58z"/>
	<path fill="#FFFFFF" d="M148,2c-17.674,0-32,14.328-32,32s14.326,32,32,32s32-14.328,32-32S165.674,2,148,2z M148,58
		c-13.256,0-24-10.745-24-24c0-13.256,10.744-24,24-24s24,10.744,24,24C172,47.255,161.256,58,148,58z"/>
	<path fill="#FFFFFF" d="M223,6c0-1.1-0.9-2-2-2h-36c-1.1,0-2,0.9-2,2v4c0,1.1,0.9,2,2,2h12c1.1,0,2,0.9,2,2v52c0,1.1,0.9,2,2,2h4
		c1.1,0,2-0.9,2-2V14c0-1.1,0.9-2,2-2h12c1.1,0,2-0.9,2-2V6z"/>
	<path fill="#EF9A9A" d="M14.488,50.466l30.15,14.021c-0.029-0.053-0.049-0.101-0.082-0.149L4.109,3.665
		c-0.172-0.256-0.33-0.419-0.476-0.511L14.488,50.466z"/>
	<path fill="#E8274D" d="M44.639,64.486l-30.15-14.021L3.416,65.203c0.366,0.479,0.938,0.796,1.585,0.796h38.666
		C44.704,66,45.107,65.33,44.639,64.486z"/>
</g>
</svg>
