<?xml version="1.0" encoding="UTF-8" standalone="no"?>
<svg width="139px" height="50px" viewBox="0 0 139 50" version="1.1" xmlns="http://www.w3.org/2000/svg" xmlns:xlink="http://www.w3.org/1999/xlink">
    <!-- Generator: Sketch 39.1 (31720) - http://www.bohemiancoding.com/sketch -->
    <title>logo-text-dark_jm</title>
    <desc>Created with Sketch.</desc>
    <defs>
        <radialGradient cx="50%" cy="0%" fx="50%" fy="0%" r="100%" id="radialGradient-1">
            <stop stop-color="#20C6B7" offset="0%"></stop>
            <stop stop-color="#4D9ABF" offset="100%"></stop>
        </radialGradient>
        <linearGradient x1="67.0275807%" y1="84.7140915%" x2="67.027578%" y2="0%" id="linearGradient-2">
            <stop stop-color="#313D3E" offset="0%"></stop>
            <stop stop-color="#425253" offset="100%"></stop>
        </linearGradient>
    </defs>
    <g id="Symbols" stroke="none" stroke-width="1" fill="none" fill-rule="evenodd">
        <g id="header" transform="translate(-250.000000, -13.000000)">
            <g id="logo">
                <g transform="translate(250.000000, 13.000000)">
                    <g id="logo-v1-01">
                        <g id="Layer_1">
                            <g id="Page-1_1_">
                                <g id="logo">
                                    <g id="Page-1">
                                        <g id="logo-text-dark_jm">
                                            <path d="M35.0725781,17.710084 C35.3253534,17.8361345 35.5359995,18.0042017 35.7045164,18.1932773 C35.725581,18.2142857 35.725581,18.2142857 35.7466456,18.2142857 L35.7677102,18.2142857 L40.6125709,16.1344538 C40.6336355,16.1134454 40.6547001,16.092437 40.6547001,16.0714286 C40.6547001,16.0504202 40.6547001,16.0294118 40.6336355,16.0084034 L36.104744,11.4915966 C36.0836794,11.4705882 36.0626148,11.4705882 36.0626148,11.4705882 L36.0415502,11.4705882 C36.0204856,11.4705882 35.999421,11.4915966 35.999421,11.5336134 L35.0093842,17.6470588 C35.0304488,17.6680672 35.0515135,17.710084 35.0725781,17.710084 Z M25.0247584,13.6134454 C25.2564691,13.9705882 25.4039214,14.3907563 25.4460506,14.8109244 C25.4460506,14.8319328 25.4671152,14.8529412 25.4881799,14.8739496 L32.692277,17.9621849 L32.7133416,17.9621849 C32.7344062,17.9621849 32.7554708,17.9621849 32.7554708,17.9411765 C32.9661169,17.7731092 33.2188923,17.6470588 33.4927322,17.5630252 C33.5137968,17.5630252 33.5348614,17.5420168 33.5348614,17.5 L34.7144797,10.1260504 C34.7144797,10.105042 34.7144797,10.0840336 34.6934151,10.0630252 L30.1855882,5.54621849 C30.1645236,5.52521008 30.1645236,5.52521008 30.143459,5.52521008 C30.1223944,5.52521008 30.1013298,5.54621849 30.1013298,5.56722689 L25.0247584,13.5084034 C25.0036938,13.5504202 25.0036938,13.592437 25.0247584,13.6134454 Z M49.6282246,24.9789916 L41.8975122,17.2478992 C41.8764476,17.2268908 41.855383,17.2268908 41.855383,17.2268908 L41.8343183,17.2268908 L36.5892301,19.4747899 C36.5681655,19.4957983 36.5471009,19.5168067 36.5471009,19.5378151 C36.5471009,19.5588235 36.5681655,19.6008403 36.5892301,19.6008403 L49.5229015,25.1260504 L49.5439661,25.1260504 C49.5650307,25.1260504 49.5860954,25.1260504 49.5860954,25.105042 L49.6282246,25.0630252 C49.6703538,25.0630252 49.6703538,25 49.6282246,24.9789916 Z M48.3432833,26.2394958 L35.9362271,20.9453782 L35.9151625,20.9453782 C35.8940979,20.9453782 35.8730333,20.9453782 35.8519687,20.9663866 C35.5149349,21.4285714 35.0093842,21.7226891 34.4195751,21.8067227 C34.3985105,21.8067227 34.3563813,21.8277311 34.3563813,21.8697479 L33.0293108,30.0840336 C33.0293108,30.105042 33.0293108,30.1260504 33.0503754,30.1470588 C33.5137968,30.5042017 33.7876368,31.0294118 33.8508306,31.6176471 C33.8508306,31.6596639 33.8718952,31.6806723 33.9140244,31.6806723 L41.4130261,33.2563025 L41.4340907,33.2563025 C41.4551553,33.2563025 41.47622,33.2563025 41.47622,33.2352941 L48.3432833,26.3655462 C48.3643479,26.3445378 48.3643479,26.3235294 48.3643479,26.302521 C48.3643479,26.2815126 48.3643479,26.2605042 48.3432833,26.2394958 Z M31.9128864,19.2226891 L25.1300815,16.3235294 L25.1090169,16.3235294 C25.0879522,16.3235294 25.0668876,16.3445378 25.045823,16.3655462 C24.5824016,17.0798319 23.8030109,17.5 22.9604265,17.5 C22.8340388,17.5 22.7076511,17.4789916 22.5601989,17.4579832 L22.5391343,17.4579832 C22.5180696,17.4579832 22.497005,17.4789916 22.4759404,17.5 L16.8938184,26.2184874 C16.8727538,26.2394958 16.8727538,26.2815126 16.8938184,26.302521 C16.914883,26.3235294 16.9359476,26.3235294 16.9570122,26.3235294 L16.9780768,26.3235294 L31.8707571,19.9159664 C31.8918217,19.894958 31.9128864,19.8739496 31.9128864,19.8529412 L31.9128864,19.7689076 L31.9128864,19.6638655 C31.9128864,19.5378151 31.933951,19.4117647 31.9550156,19.3067227 C31.9550156,19.2647059 31.933951,19.2436975 31.9128864,19.2226891 Z M40.0859556,34.4747899 L33.4927322,33.1092437 L33.4716676,33.1092437 C33.450603,33.1092437 33.4295384,33.1302521 33.4084738,33.1302521 C33.1556984,33.4453782 32.8397293,33.697479 32.4605662,33.8445378 C32.4395016,33.8445378 32.418437,33.8865546 32.418437,33.907563 L30.8385912,43.697479 C30.8385912,43.7394958 30.8596558,43.7605042 30.8807204,43.7815126 L30.9228496,43.7815126 C30.9439142,43.7815126 30.9649788,43.7815126 30.9649788,43.7605042 L40.1070202,34.6218487 C40.1280848,34.6008403 40.1280848,34.5798319 40.1280848,34.5588235 C40.1280848,34.4957983 40.1070202,34.4747899 40.0859556,34.4747899 Z M30.8807204,33.802521 C30.248782,33.5504202 29.7853606,32.9831933 29.6168437,32.3319328 C29.6168437,32.3109244 29.5957791,32.289916 29.5536499,32.2689076 L17.3361752,29.7268908 C17.3361752,29.7268908 17.3361752,29.7268908 17.3151106,29.7268908 C17.294046,29.7268908 17.2729814,29.7478992 17.2519168,29.7689076 C17.1887229,29.8739496 17.1465937,29.9579832 17.0833999,30.0420168 C17.0623353,30.0630252 17.0623353,30.105042 17.0833999,30.1260504 L28.2055147,46.3445378 C28.2265793,46.3655462 28.2265793,46.3655462 28.247644,46.3655462 C28.2687086,46.3655462 28.2897732,46.3655462 28.2897732,46.3445378 L28.9638407,45.6722689 C28.9638407,45.6512605 28.9849054,45.6512605 28.9849054,45.6302521 L30.8807204,33.8655462 C30.9228496,33.8655462 30.9228496,33.8235294 30.8807204,33.802521 Z M17.5889506,28.2352941 C17.5889506,28.2773109 17.6100152,28.2983193 17.6521444,28.2983193 L29.764296,30.8193277 L29.7853606,30.8193277 C29.8064252,30.8193277 29.8274898,30.7983193 29.8485544,30.7773109 C30.2066528,30.1470588 30.8385912,29.7268908 31.554788,29.6848739 C31.5969172,29.6848739 31.6179818,29.6638655 31.6179818,29.6218487 L32.9239877,21.5336134 C32.9239877,21.512605 32.9239877,21.4705882 32.8818585,21.4705882 C32.7976,21.407563 32.7133416,21.3445378 32.6080185,21.2394958 C32.5869539,21.2184874 32.5658893,21.2184874 32.5658893,21.2184874 L32.5448247,21.2184874 L17.567886,27.6680672 C17.5257567,27.6890756 17.5257567,27.710084 17.5257567,27.7521008 C17.5468213,27.9201681 17.5889506,28.0672269 17.5889506,28.2352941 Z M12.5123792,30.2731092 C12.4491854,30.1890756 12.3859915,30.105042 12.3227977,30 C12.3017331,29.9789916 12.2806685,29.9579832 12.2596039,29.9579832 L12.2385393,29.9579832 L7.01451561,32.2058824 C6.993451,32.2058824 6.97238639,32.2268908 6.97238639,32.2478992 C6.97238639,32.2689076 6.97238639,32.289916 6.993451,32.3109244 L9.54226899,34.8529412 C9.5633336,34.8739496 9.58439821,34.8739496 9.58439821,34.8739496 C9.60546282,34.8739496 9.62652743,34.8529412 9.64759205,34.8319328 L12.5334438,30.3151261 C12.5334438,30.3151261 12.5334438,30.2941176 12.5123792,30.2731092 Z M15.9669755,31.092437 C15.9459109,31.0714286 15.9248463,31.0504202 15.9037816,31.0504202 L15.882717,31.0504202 C15.503554,31.2184874 15.124391,31.302521 14.7241634,31.302521 C14.4081942,31.302521 14.1132897,31.2605042 13.7973205,31.1554622 L13.7762559,31.1554622 C13.7551913,31.1554622 13.7341267,31.1764706 13.7130621,31.197479 L10.679758,35.9453782 L10.6586934,35.9663866 C10.6376288,35.987395 10.6376288,36.0294118 10.6586934,36.0504202 L24.6034662,49.9789916 C24.6245308,50 24.6455954,50 24.6455954,50 C24.66666,50 24.6877246,50 24.6877246,49.9789916 L27.1312196,47.5210084 C27.1522842,47.5 27.1522842,47.4579832 27.1312196,47.4369748 L15.9669755,31.092437 Z M14.0079666,25.6092437 C14.0290312,25.6302521 14.0500958,25.6512605 14.0711605,25.6512605 L14.0922251,25.6512605 C14.3028712,25.6092437 14.5345819,25.5672269 14.745228,25.5672269 C14.9769387,25.5672269 15.2297141,25.6092437 15.4614248,25.6722689 L15.4824894,25.6722689 C15.503554,25.6722689 15.5246186,25.6512605 15.5456833,25.6302521 L21.1909991,16.8067227 C21.2120637,16.7857143 21.2120637,16.7436975 21.1909991,16.7226891 C20.7486423,16.2605042 20.4958669,15.6512605 20.4958669,15 C20.4958669,14.8109244 20.5169316,14.6218487 20.5590608,14.4327731 C20.5590608,14.3907563 20.5379962,14.3697479 20.5169316,14.3487395 C19.8007348,14.0336134 13.4602867,11.3445378 13.4602867,11.3235294 L13.4392221,11.3235294 C13.4181575,11.3235294 13.3970929,11.3235294 13.3970929,11.3445378 L8.02561696,16.7226891 C8.00455235,16.7436975 8.00455235,16.7857143 8.02561696,16.8067227 L14.0079666,25.6092437 Z M14.6188403,10.2310924 C14.6188403,10.2310924 21.0224822,12.9621849 21.2963222,13.0882353 L21.3173868,13.0882353 C21.3384514,13.0882353 21.3384514,13.0882353 21.359516,13.0672269 C21.8018729,12.710084 22.3706174,12.5 22.9393619,12.5 C23.2132018,12.5 23.4870418,12.5420168 23.7608817,12.6260504 L23.7819463,12.6260504 C23.8030109,12.6260504 23.8240756,12.605042 23.8451402,12.5840336 L29.0480992,4.45378151 C29.0691638,4.43277311 29.0691638,4.3907563 29.0480992,4.3697479 L24.7298538,0.0630252101 C24.7087892,0.0420168067 24.7087892,0.0420168067 24.6877246,0.0420168067 C24.66666,0.0420168067 24.6455954,0.0420168067 24.6455954,0.0630252101 L14.6188403,10.105042 C14.5977757,10.1260504 14.5977757,10.1470588 14.5977757,10.1680672 C14.5767111,10.210084 14.5977757,10.210084 14.6188403,10.2310924 Z M12.1332162,27.1428571 C12.1542808,27.1428571 12.1753454,27.1218487 12.19641,27.1008403 C12.3227977,26.8487395 12.5123792,26.6176471 12.7019607,26.407563 C12.7230253,26.3865546 12.7230253,26.3445378 12.7019607,26.3235294 C12.6387669,26.2394958 6.93025717,17.9201681 6.93025717,17.8991597 C6.90919256,17.8781513 6.90919256,17.8781513 6.86706333,17.8571429 C6.84599872,17.8571429 6.82493411,17.8571429 6.82493411,17.8781513 L0.168516892,24.5168067 C0.14745228,24.5378151 0.14745228,24.5588235 0.14745228,24.5798319 C0.14745228,24.6008403 0.168516892,24.6218487 0.210646115,24.6218487 L12.1332162,27.1428571 C12.1121516,27.1428571 12.1121516,27.1428571 12.1332162,27.1428571 Z M11.5855363,28.592437 C11.5855363,28.5504202 11.5644717,28.5294118 11.5223425,28.5294118 L1.17961824,26.3655462 C1.17961824,26.3655462 1.17961824,26.3655462 1.15855363,26.3655462 C1.13748902,26.3655462 1.11642441,26.3865546 1.0953598,26.407563 C1.07429518,26.4285714 1.0953598,26.4705882 1.11642441,26.4915966 L5.72957432,31.1134454 C5.75063893,31.1344538 5.77170354,31.1344538 5.77170354,31.1344538 L5.79276815,31.1344538 L11.5223425,28.6764706 C11.5644717,28.6344538 11.5855363,28.6134454 11.5855363,28.592437 Z" id="Combined-Shape" fill="url(#radialGradient-1)"></path>
                                            <path d="M100.899489,12.5840336 L104.269827,12.5840336 L104.269827,34.4747899 L100.899489,34.4747899 L100.899489,12.5840336 Z M66.4167199,18.7605042 C64.6051633,18.7605042 63.1517051,19.4537815 62.0352807,20.8193277 L61.9299577,19.0336134 L58.770266,19.0336134 L58.770266,34.4537815 L62.1406038,34.4537815 L62.1406038,23.487395 C62.8146714,22.2268908 63.8257727,21.5966387 65.1739078,21.5966387 C66.1007507,21.5966387 66.7748183,21.8277311 67.1961105,22.3109244 C67.6174028,22.7731092 67.8069843,23.5084034 67.8069843,24.4747899 L67.8069843,34.4537815 L71.1773221,34.4537815 L71.1773221,24.2647059 C71.1351929,20.6092437 69.555347,18.7605042 66.4167199,18.7605042 Z M80.9723664,18.7605042 C79.6874251,18.7605042 78.5288715,19.0966387 77.4756409,19.7689076 C76.4224104,20.4411765 75.6219551,21.3865546 75.032146,22.605042 C74.4634015,23.8235294 74.1684969,25.1890756 74.1684969,26.7226891 L74.1684969,27.1428571 C74.1684969,29.4327731 74.8425645,31.2815126 76.169635,32.6680672 C77.4967055,34.0546218 79.2240037,34.7478992 81.372594,34.7478992 C82.6154061,34.7478992 83.7528951,34.4957983 84.7639965,33.9915966 C85.7750978,33.487395 86.5755531,32.7731092 87.1653622,31.8487395 L85.3538056,30.0630252 C84.3848335,31.3445378 83.1209568,31.9957983 81.5832402,31.9957983 C80.4878804,31.9957983 79.5610375,31.6176471 78.8448407,30.8823529 C78.1075793,30.1470588 77.7073516,29.1386555 77.6020286,27.8571429 L87.4181375,27.8571429 L87.4181375,26.4705882 C87.4181375,24.012605 86.849393,22.1218487 85.7540332,20.7773109 C84.5954796,19.4327731 83.0156337,18.7605042 80.9723664,18.7605042 Z M84.0477997,25.3151261 L77.6230932,25.3151261 C77.7705455,24.1176471 78.1497085,23.1932773 78.718453,22.5420168 C79.2871975,21.8697479 80.0455235,21.5546218 80.9723664,21.5546218 C81.8992093,21.5546218 82.6364707,21.8487395 83.163086,22.4369748 C83.6897013,23.0252101 83.9846059,23.907563 84.0688643,25.0630252 L84.0688643,25.3151261 L84.0477997,25.3151261 Z M95.0013977,31.4915966 C94.7696869,31.2394958 94.6643639,30.7983193 94.6643639,30.210084 L94.6643639,21.5966387 L97.3185049,21.5966387 L97.3185049,19.0336134 L94.6643639,19.0336134 L94.6643639,15.2941176 L91.294026,15.2941176 L91.294026,19.0336134 L88.8294665,19.0336134 L88.8294665,21.5966387 L91.294026,21.5966387 L91.294026,30.3361345 C91.294026,33.2773109 92.6000319,34.7478992 95.1909792,34.7478992 C95.9071759,34.7478992 96.6444373,34.6428571 97.423828,34.4117647 L97.423828,31.7226891 C97.0236004,31.8277311 96.6233727,31.8697479 96.2442097,31.8697479 C95.633336,31.8907563 95.2331084,31.7647059 95.0013977,31.4915966 Z M109.49385,19.0546218 L112.864188,19.0546218 L112.864188,34.4747899 L109.49385,34.4747899 L109.49385,19.0546218 Z M131.990855,29.5168067 L128.810099,19.0546218 L125.165921,19.0546218 L130.453139,34.3907563 L129.968653,35.7142857 C129.715877,36.4705882 129.378844,36.9957983 128.936487,37.3109244 C128.515194,37.6260504 127.862192,37.7941176 127.019607,37.7941176 L126.387669,37.7521008 L126.387669,40.4411765 C126.977478,40.6092437 127.525158,40.6932773 128.009644,40.6932773 C130.200363,40.6932773 131.759145,39.3907563 132.685988,36.8067227 L138.668337,19.0546218 L135.066289,19.0546218 L131.990855,29.5168067 Z M119.478476,13.6764706 C118.551633,14.6008403 118.088212,15.9243697 118.088212,17.6470588 L118.088212,19.0546218 L115.792169,19.0546218 L115.792169,21.6176471 L118.088212,21.6176471 L118.088212,34.4747899 L121.45855,34.4747899 L121.45855,21.6176471 L124.512918,21.6176471 L124.512918,19.0546218 L121.45855,19.0546218 L121.45855,17.6890756 C121.45855,15.987395 122.259005,15.1470588 123.88098,15.1470588 C124.365466,15.1470588 124.807823,15.1890756 125.165921,15.2521008 L125.25018,12.5420168 C124.576112,12.3739496 123.965238,12.289916 123.354365,12.289916 C121.711325,12.2689076 120.405319,12.7521008 119.478476,13.6764706 Z M112.864188,12.2689076 L112.864188,15.2941176 L109.49385,15.2941176 L109.49385,12.2689076 L112.864188,12.2689076 Z" id="Combined-Shape" fill="url(#linearGradient-2)"></path>
                                        </g>
                                    </g>
                                </g>
                            </g>
                        </g>
                    </g>
                </g>
            </g>
        </g>
    </g>
</svg>