<svg width="24" height="24" xmlns="http://www.w3.org/2000/svg">

 <g>
  <title>background</title>
  <rect x="-1" y="-1" width="5.779527" height="5.779527" id="canvas_background" fill="none"/>
  <g id="canvasGrid" display="none">
   <rect id="svg_1" width="100%" height="100%" x="0" y="0" stroke-width="0" fill="url(#gridpattern)"/>
  </g>
 </g>
 <g>
  <title>Layer 1</title>
  <path id="svg_10" d="m-39.52055,16.983712c-0.325215,0.701213 -0.552918,1.069286 -1.659212,1.436894c-0.195491,0.100189 0.064869,0.334084 0.195491,0.300541c0.975672,-0.400718 1.203368,-0.735235 1.659212,-1.47045c0.227702,0.936033 0.747969,1.537529 1.626561,1.905137l0.065308,-0.200811c1.203814,0.668595 2.114617,0.802334 2.895243,0.635059c0.748409,-0.167262 1.626561,-0.300528 2.342758,-0.200339c-0.455405,-0.36764 -0.716197,-0.802327 -0.813284,-1.336744c0.747976,-0.802301 2.212143,-0.501327 2.927901,-0.96913l-0.162834,-0.368067c1.561693,-0.534424 2.895683,-1.403371 4.749946,-1.13592l-3.058077,-2.272764l0.064869,-0.300994c-0.910803,-0.701672 -1.951783,-0.868947 -3.123379,-0.400698c0.39053,-1.169928 0,-2.439593 1.07407,-3.34205c-0.260353,-0.50134 0,-1.203018 0.455405,-1.838077c0.065314,-1.203012 0.390091,-2.272541 0.975672,-3.241677c-0.943454,0.635059 -1.886475,1.203012 -2.862586,1.704581l-0.162834,-0.367837c-0.390091,0.635269 -0.94346,1.103065 -1.691869,1.370051l-0.130177,-0.367608c-1.008768,1.036209 -2.212143,1.570626 -2.960558,3.075065c0.227702,-1.470896 -0.195485,-2.907803 -0.78106,-4.077508l-0.227702,0.234118c-0.422748,-1.43713 -1.919132,-2.37294 -2.862586,-3.542639c0.390091,3.208331 -0.748854,3.609272 -0.715764,5.380716l-0.390969,0.033077c0.553363,1.80498 -0.195052,2.640385 0.162834,3.876946c-0.910803,-0.467803 -2.082405,-0.133732 -2.863032,-0.868954c0.943454,1.537549 1.269121,3.408703 2.863032,4.678801l-0.227702,0.100189c0.585575,0.668136 1.33399,1.236561 2.635323,1.571092z" fill-opacity="null" stroke-opacity="null" stroke-width="1.5" stroke="null" fill="#186d41"/>
  <path id="svg_12" d="m3.138073,6.072159c-0.09281,0 -0.140514,-0.101092 -0.140514,-0.22232c0,-0.101069 0.023848,-0.199195 0.09281,-0.199195c0.047704,0 0.119516,0.098126 0.143365,0.199195c0.047704,0.147154 0,0.22232 -0.095661,0.22232zm15.86483,5.768196c0.212333,0 0.26003,0.025927 0.140514,0.199172c-0.068961,0.121228 -0.212326,0.222296 -0.281287,0.222296c-0.071805,0 -0.143365,-0.101069 -0.143365,-0.222296c0,-0.124201 0.095668,-0.199172 0.284138,-0.199172zm-14.824197,-7.055804c-0.212326,-0.049051 -0.236182,-0.297439 0,-0.372432c0.119509,-0.023094 0.188478,0.049044 0.188478,0.199195c0,0.124186 -0.068968,0.196354 -0.188478,0.173237zm-2.646691,7.846754c0.284138,-0.072176 0.284138,-0.124053 0.188478,-0.294473c-0.07156,-0.124053 -0.095408,-0.274189 -0.047704,-0.323248c0.023848,-0.075127 0.143365,0 0.212326,0.14717c0.095661,0.199195 0.167213,0.225278 0.355691,0.101069c0.116925,-0.074986 0.212326,-0.12417 0.212326,-0.049044c0,0.049044 0.071812,0 0.164622,-0.101069c0.143372,-0.14717 0.16722,-0.470551 0.023856,-0.643804c-0.116665,-0.14717 -0.70879,-0.098111 -0.873412,0.074986c-0.095408,0.124209 -0.16722,0.098267 -0.26003,-0.124029c-0.143365,-0.369623 -0.143365,-0.421515 0.18847,-0.444609c0.284138,0 0.284138,0 0.047704,-0.150136c-0.119257,-0.072176 -0.236174,-0.222296 -0.236174,-0.320423c0,-0.248372 0.329244,-0.395542 0.472609,-0.222289c0.047704,0.072161 0.140521,0.14717 0.236182,0.14717c0.188478,0 1.08833,-0.840041 1.08833,-1.013293c0,-0.075119 0.093069,-0.124162 0.188478,-0.075119c0.116918,0.026075 0.329251,-0.049044 0.544428,-0.173253c0.305136,-0.199179 0.305136,-0.222296 0.140514,-0.545544c-0.116665,-0.222296 -0.26003,-0.297439 -0.591872,-0.297439c-0.376948,0 -0.472609,0.049067 -0.589274,0.346506c-0.047964,0.199172 -0.191322,0.346349 -0.284138,0.346349c-0.164622,0 -0.212326,-0.222163 -0.047704,-0.346349c0.071552,-0.049067 0.119257,-0.222296 0.119257,-0.395549c0,-0.271371 -0.047704,-0.320423 -0.355691,-0.248239c-0.307987,0.049044 -0.307987,0.025927 -0.236182,-0.346521c0.047704,-0.222289 0.116665,-0.421468 0.164629,-0.444585c0.047704,-0.025927 0.095401,-0.248239 0.095401,-0.470535c0,-0.444632 0.140774,-0.519618 0.401063,-0.199195c0.119249,0.173245 0.191069,0.199195 0.236174,0.049044c0.047704,-0.098111 0.214917,-0.121228 0.475207,-0.072184c0.3531,0.098126 0.376948,0.072184 0.329244,-0.222296c-0.023848,-0.173229 -0.047957,-0.372424 -0.071805,-0.421468c0,-0.075009 -0.116665,-0.173253 -0.257439,-0.248262c-0.284138,-0.124162 -0.355691,-0.421468 -0.095661,-0.421468c0.071812,0 0.140766,-0.049067 0.140766,-0.147326c0,-0.075009 0.143372,-0.124053 0.331842,-0.101084c0.26029,0.026075 0.400804,-0.072145 0.756494,-0.591739c0.26029,-0.372448 0.44876,-0.571627 0.472616,-0.470559c0.023848,0.124053 0.143365,0.196213 0.260283,0.196213c0.188478,0 0.212333,-0.072161 0.143372,-0.395408c-0.024108,-0.222312 -0.143372,-0.493652 -0.215177,-0.617861c-0.212333,-0.274298 -0.212333,-0.594721 0,-0.496634c0.167213,0.098267 0.687526,-0.173096 0.687526,-0.346341c0,-0.075127 0.069221,-0.124186 0.164622,-0.124186c0.095668,0 0.140774,0.150128 0.140774,0.346498c0,0.248239 0.047704,0.346365 0.16722,0.274181c0.09281,-0.051884 0.164629,-0.199195 0.164629,-0.297298c0,-0.297454 0.756487,-0.817056 0.944958,-0.669754c0.07182,0.049083 0.143365,0 0.167488,-0.173229c0.068954,-0.346498 0.496197,-0.617861 0.684668,-0.444609c0.095668,0.072161 0.188485,0.049067 0.212593,-0.025927c0.047697,-0.098259 0.236174,-0.173253 0.4485,-0.196386c0.212326,-0.025927 0.496464,-0.124186 0.615981,-0.225255c0.4485,-0.320423 0.897268,-0.297306 1.085738,0.049216c0.119516,0.248223 0.167213,0.248223 0.167213,0.07497c0,-0.222312 0.093077,-0.248239 0.661094,-0.173229c0.899859,0.098259 1.040633,0.098259 1.372475,-0.02595c0.212326,-0.072176 0.284131,-0.049059 0.284131,0.150112c0,0.124209 0.068968,0.22232 0.164629,0.22232c0.071552,0 0.140514,-0.072184 0.140514,-0.147311c0,-0.199172 0.379806,-0.297298 0.711642,-0.199172c0.257439,0.098259 0.281287,0.124162 0.212326,0.791083c-0.023848,0.398374 0,0.669738 0.045113,0.669738c0.047697,0 0.095661,-0.173253 0.095661,-0.421491c0,-0.418666 0.26003,-0.591778 0.355691,-0.248246c0.023856,0.124061 0.09281,0.074994 0.140514,-0.12122c0.119524,-0.519751 0.379806,-0.248395 0.307987,0.320423c-0.071545,0.470535 -0.071545,0.470535 0.140781,0.297282c0.119509,-0.074994 0.212319,-0.27134 0.212319,-0.395408c0,-0.124194 0.07182,-0.271497 0.167228,-0.323389c0.188463,-0.098087 0.401056,0.274204 0.331835,0.545677c-0.023848,0.124076 -0.023848,0.222312 0.045106,0.222312c0.047964,0 0.095668,-0.072161 0.095668,-0.124186c0,-0.072176 0.116918,-0.098126 0.260283,-0.049044c0.307734,0.074994 0.35284,0.274165 0.092817,0.395393c-0.068961,0.052025 -0.140774,0.173253 -0.140774,0.274337c0,0.173253 0.047957,0.173253 0.307987,0c0.424652,-0.297298 0.613122,-0.274337 0.684942,0.049044c0.047697,0.173253 0.140766,0.248379 0.236174,0.173253c0.095661,-0.025942 0.307987,0.075127 0.472616,0.248239c0.143365,0.147303 0.355691,0.271364 0.451352,0.271364c0.140774,0 0.140774,0.124201 0.09281,0.470684c-0.047697,0.372448 -0.047697,0.421491 0.095668,0.271379c0.18847,-0.245437 0.26003,-0.222336 0.329251,0.124029c0.023848,0.173253 0.191062,0.297439 0.379539,0.372432c0.212326,0.049216 0.329251,0.173245 0.329251,0.320556c0,0.150128 0.071545,0.323248 0.143365,0.421507c0.188478,0.173229 0.140514,0.692832 -0.07182,0.866077c-0.071545,0.051892 -0.164615,0.02595 -0.18847,-0.049044c-0.047697,-0.075142 -0.212326,-0.075142 -0.52032,0c-0.496464,0.173096 -0.589274,0.222296 -0.472609,0.447418c0.071812,0.14717 0.897521,0.098126 1.34862,-0.075127c0.140774,-0.075001 0.188478,0 0.188478,0.346506c0,0.248223 -0.047704,0.444609 -0.119257,0.444609c-0.047964,0 -0.093069,0.074986 -0.093069,0.199172c0,0.297423 0.116925,0.27134 0.424912,-0.075009c0.164362,-0.199172 0.260023,-0.248372 0.376948,-0.124162c0.119257,0.124162 0.143365,0.124162 0.143365,-0.075009c0,-0.121376 -0.047964,-0.222296 -0.119509,-0.222296c-0.045113,0 -0.093077,-0.098259 -0.093077,-0.196386c0,-0.12417 0.069221,-0.222296 0.164622,-0.222296c0.071812,0 0.16722,0.049044 0.16722,0.121228c0,0.075158 0.093069,0.173245 0.212586,0.199195c0.164369,0.075142 0.212326,0.173253 0.18847,0.470551c-0.047957,0.568779 0.047711,0.742047 0.400804,0.643937c0.16722,-0.049216 0.260023,0 0.188478,0.098111c-0.021257,0.049044 0,0.173253 0.047704,0.225106c0.191322,0.147319 0.119509,0.493691 -0.092817,0.493691c-0.260283,0 -0.331842,0.124162 -0.191062,0.346482c0.095401,0.124186 0.167213,0.14717 0.260023,0.049059c0.215177,-0.248239 0.26029,-0.049059 0.284138,0.941242c0,0.496462 0.047704,0.892027 0.095408,0.892027c0.116918,0 0.071812,0.545677 -0.095408,0.767974c-0.093069,0.124053 -0.093069,0.245273 -0.023848,0.346341c0.167213,0.22232 0,0.866124 -0.212593,0.866124c-0.188463,0 -0.544161,0.470535 -0.544161,0.692847c0,0.271512 -0.305136,0 -0.376948,-0.297306c-0.071552,-0.271356 -0.071552,-0.271356 -0.119516,-0.075127c-0.045106,0.225262 0.212586,0.91811 0.42751,1.114456c0.140766,0.150151 -0.119516,0.398374 -0.307994,0.297306c-0.095668,-0.049044 -0.140774,-0.196213 -0.140774,-0.346349c0,-0.421468 -0.591872,-1.483954 -1.040633,-1.882312c-0.238766,-0.196386 -0.451099,-0.418682 -0.451099,-0.493668c0,-0.150136 -0.756747,-0.617861 -1.181399,-0.767989c-0.236442,-0.075127 -0.307994,-0.049051 -0.307994,0.150128c0,0.14717 -0.045106,0.196213 -0.140774,0.14717c-0.212326,-0.098126 -0.307987,0.124209 -0.119509,0.346506c0.260283,0.271356 0.215177,0.594721 -0.068961,0.470535c-0.191069,-0.074994 -0.214925,-0.049067 -0.143365,0.37244c0.023848,0.245414 0.071812,0.568779 0.071812,0.715949c0,0.150136 0.047697,0.248262 0.095401,0.248262c0.069228,0 0.093069,-0.049067 0.045113,-0.124053c-0.023848,-0.075142 0.024115,-0.147311 0.119509,-0.147311c0.07182,0 0.140774,0.098244 0.140774,0.196354c0,0.101084 -0.093062,0.199172 -0.260283,0.173269c-0.140514,0 -0.26003,-0.072184 -0.26003,-0.121243c0,-0.225278 -0.637238,-1.758275 -0.825708,-1.983397c-0.212333,-0.245437 -0.07156,-0.320423 -1.74943,0.842975c-0.260023,0.173253 -0.544161,0.545677 -0.687526,0.817056c-0.116925,0.27134 -0.305395,0.545677 -0.400804,0.594721c-0.095661,0.049067 -0.44876,0.444609 -0.756754,0.8661c-1.324771,1.856229 -1.109594,2.078542 -1.016777,5.869281c0.401056,2.872465 0.401056,2.872465 0.401056,2.872465c-0.945225,0 -0.945225,0 -0.945225,0c-0.780343,0 -0.780343,0 -0.780343,0c0.071552,-2.650318 0.071552,-2.650318 0.071552,-2.650318c0.047697,-0.222148 0.071812,-0.669714 0.095668,-0.917977c0.023848,-0.147303 -0.663685,-0.791107 -0.639829,-0.938261c0,-0.124186 0.711382,0.22232 0.711382,0.098111c0.116918,-1.807186 0,-3.244913 -0.307994,-4.01007c-0.071552,-0.470559 -0.663678,-1.983248 -0.756487,-1.983248c-0.023856,0 -0.191069,-0.147303 -0.355691,-0.320556c-0.284146,-0.323232 -0.400804,-0.346365 -1.985865,-0.444609c-1.701719,-0.100936 -1.701719,-0.100936 -1.701719,-0.100936c-0.403395,0.346365 -0.403395,0.346365 -0.403395,0.346365c-0.236174,0.225255 -0.472609,0.372432 -0.541577,0.372432c-0.143365,0 -0.73549,0.519727 -0.992929,0.81701c-0.023848,0 -0.047697,-0.025903 -0.047697,-0.049044c-0.023856,0 -0.023856,0 -0.023856,-0.025942c-0.023848,-0.072161 -0.047957,-0.147303 -0.095661,-0.222296c0.143365,-0.124186 0.260283,-0.199312 0.307987,-0.173229c0.071552,0.049044 0.140774,0 0.140774,-0.124209c0,-0.124053 -0.140774,-0.173245 -0.517722,-0.124053c-0.451359,0.075009 -0.568277,0.100936 -0.639829,0.395416c-0.116925,0.150128 -0.140774,0.37244 -0.071552,0.545693c-0.024115,0.222296 -0.024115,0.372424 0,0.372424c0.023848,0 0.047697,-0.049044 0.119257,-0.101069c0,0.02595 0.023848,0.052025 0.047957,0.075127c-0.236434,0.074994 -0.355951,0.297306 -0.331842,0.519602c-0.119509,0.101069 -0.236434,0.150128 -0.379792,0.225122c0,0 0,-0.025927 -0.021264,-0.025927c0.093069,-0.222296 0.140774,-0.470559 0.164622,-0.842983c0.047964,-0.418682 0.023848,-0.692847 -0.047697,-0.692847c-0.047704,0 -0.095661,0.101069 -0.095661,0.248215c0.023841,0.124209 -0.021264,0.248262 -0.116672,0.271379c-0.071812,0.025927 -0.119509,-0.023117 -0.119509,-0.14717c0,-0.297439 -0.092817,-0.297439 -0.305403,-0.026075c-0.095401,0.101069 -0.283878,0.222312 -0.4485,0.274337c-0.215177,0.072161 -0.284138,0.023094 -0.379799,-0.248262c-0.071552,-0.222296 -0.119257,-0.470684 -0.071552,-0.568794c0.023848,-0.124186 0.023848,-0.225122 -0.068961,-0.225122c-0.26029,0 -0.071812,-0.395565 0.236174,-0.470692zm2.033562,-5.69307c-0.143365,-0.025927 -0.26029,-0.098111 -0.307987,-0.199179c-0.023856,-0.147303 -0.047704,-0.147303 -0.047704,0c0,0.101069 -0.095661,0.173253 -0.188478,0.199179c-0.167213,0 -0.167213,0.025942 0.023856,0.124209c0.116658,0.049044 0.236174,0.124029 0.260023,0.124029c0.021257,0 0.140774,-0.074986 0.26029,-0.124029c0.212326,-0.124209 0.212326,-0.124209 0,-0.124209zm18.747696,3.986953c0.045113,0.049067 0.092817,-0.026075 0.092817,-0.150128c0,-0.098244 -0.047704,-0.19637 -0.092817,-0.19637c-0.071805,0 -0.119509,0.049059 -0.119509,0.121228c0,0.075142 0.047704,0.176211 0.119509,0.22527zm-0.167213,0.222312c-0.023848,-0.075142 -0.140774,-0.173245 -0.236434,-0.173245c-0.068961,0 -0.116665,0.098103 -0.068961,0.173245c0.021257,0.074994 0.116918,0.124061 0.212326,0.124061c0.093069,0 0.116918,-0.049067 0.093069,-0.124061zm-0.212326,1.114323c0.071552,0 0.167213,-0.025927 0.167213,-0.049044c0,-0.052025 -0.095661,-0.101069 -0.167213,-0.150136c-0.093069,-0.049059 -0.164629,-0.023117 -0.164629,0.049067c0,0.075127 0.07156,0.150112 0.164629,0.150112zm0.188478,-2.352848c0.095401,-0.049083 0.143358,-0.124201 0.119257,-0.196386c-0.07156,-0.176054 -0.472363,-0.176054 -0.472363,0c0,0.196386 0.140521,0.271379 0.353107,0.196386zm-1.298324,-1.856402c-0.119516,0.075142 -0.191069,0.222312 -0.167228,0.297439c0.119516,0.196237 0.260297,0.14717 0.379546,-0.173253c0.116925,-0.297439 0.069221,-0.346482 -0.212319,-0.124186zm-0.451359,3.813708c0.615974,0.666897 0.639829,0.692847 0.639829,0.470551c0,-0.124053 -0.047704,-0.225122 -0.119516,-0.225122c-0.068954,0 -0.18847,-0.124209 -0.260023,-0.271356c-0.068968,-0.147326 -0.212326,-0.297462 -0.329251,-0.297462c-0.214917,0 -0.214917,0.026083 0.068961,0.323389zm-0.496212,-1.166364c0.143112,0 0.212333,-0.049044 0.119264,-0.072168c-0.071552,-0.049059 -0.188478,-0.049059 -0.26003,0c-0.07182,0.023125 0,0.072168 0.140766,0.072168zm-0.684935,-3.366141c0.071552,0.075009 0.283878,0.17312 0.472349,0.22232c0.33185,0.074986 0.355698,0.074986 0.16722,-0.124186c-0.214917,-0.245437 -0.804191,-0.320423 -0.639569,-0.098134zm-1.441696,-4.108157c-0.071552,0.072161 -0.095401,0.222296 -0.071552,0.320399c0.047704,0.199195 0.188478,0.02595 0.188478,-0.271356c0,-0.150136 -0.023856,-0.173253 -0.116925,-0.049044zm0.70879,5.346705c0.188478,0.124037 0.26029,0.124037 0.355958,-0.0492c0.18847,-0.271371 0.068954,-0.395408 -0.284146,-0.222289c-0.284138,0.121361 -0.284138,0.121361 -0.071812,0.271489zm-0.472349,-1.238548c0.355691,-0.271332 0.355691,-0.271332 0.071552,-0.271332c-0.191069,0 -0.331842,0.098087 -0.403395,0.271332c-0.045113,0.17312 -0.093069,0.271379 -0.069221,0.271379c0,0 0.188478,-0.147319 0.401063,-0.271379zm-0.52032,4.012903c0.164362,0.271379 0.448508,0.271379 0.355691,-0.025942c-0.023848,-0.098244 -0.047957,-0.222296 -0.047957,-0.248379c0,-0.023117 -0.095408,-0.023117 -0.212326,0.026083c-0.191069,0.049059 -0.191069,0.124053 -0.095408,0.248239zm-0.732899,-1.016228c0.18847,0.271371 0.284138,0.297298 0.496464,0.098126c0.140774,-0.124053 0.140774,-0.124053 0,-0.14717c-0.071552,0 -0.26003,-0.026083 -0.424652,-0.075142c-0.236434,-0.098111 -0.236434,-0.098111 -0.071812,0.124186zm-0.023848,-2.699369c0.119509,0 0.260283,-0.395542 0.188478,-0.519594c-0.092817,-0.124186 -0.283886,0.074986 -0.283886,0.297298c0,0.124194 0.047704,0.222296 0.095408,0.222296zm-1.157298,1.683133c-0.143365,0.101069 -0.119509,0.124209 0.068968,0.124209c0.119509,0 0.260023,-0.049216 0.307987,-0.124209c0.071545,-0.196346 -0.164629,-0.196346 -0.376955,0zm0.023856,2.179634c0.021257,0.026083 0.09281,-0.025942 0.164622,-0.14717c0.071545,-0.101069 0.283886,-0.225255 0.4485,-0.274322c0.212326,-0.075009 0.307994,-0.196229 0.307994,-0.37244c0,-0.41851 -0.331842,-0.294481 -0.684949,0.248387c-0.143358,0.274189 -0.260023,0.496501 -0.236167,0.545544zm-0.260283,-1.140281c0.212319,-0.27134 0.212319,-0.320556 0.045098,-0.395549c-0.18847,-0.098126 -0.328984,0.124209 -0.328984,0.519602c-0.024108,0.297439 -0.024108,0.297439 0.283886,-0.124053zm-0.379546,-2.921658c0.023848,0.199172 0.071552,0.173245 0.212319,-0.19637c0.167228,-0.395416 0.167228,-0.447441 0.023856,-0.447441c-0.09281,0 -0.188478,0.075009 -0.212326,0.199203c-0.047704,0.098103 -0.047704,0.323381 -0.023848,0.444609zm-0.116925,-2.029506c0,0.100936 0.045106,0.346365 0.093069,0.519602c0.071552,0.346498 0.071552,0.346498 0.143365,0.049059c0.09281,-0.297282 0,-0.741891 -0.143365,-0.741891c-0.069221,0 -0.093069,0.07497 -0.093069,0.173229zm-1.656354,0.8169c-0.116918,0.173253 -0.116918,0.346506 -0.024108,0.8661c0.047964,0.372432 0.16748,0.744872 0.236434,0.817056c0.119516,0.124186 0.143365,0 0.167213,-0.767856c0,-0.938284 -0.119509,-1.235699 -0.379539,-0.9153zm0.212326,2.624375c0.023856,0.049067 0.071552,-0.049059 0.047704,-0.196362c0,-0.150136 -0.023848,-0.173253 -0.071552,-0.074994c-0.021264,0.098111 -0.021264,0.222296 0.023848,0.271356zm0.852155,-2.326937c-0.023848,0.049067 -0.023848,0.395565 0.047704,0.767856c0.071812,0.643937 0.093069,0.669863 0.116925,0.199312c0.023848,-0.767989 -0.023856,-1.140414 -0.164629,-0.967169zm-0.804451,6.983627c0.143365,-0.297439 0.379546,-0.793939 0.544168,-1.091355c0.18847,-0.320446 0.307987,-0.741914 0.355691,-1.163406c0.069221,-0.666921 0.069221,-0.666921 0.069221,-0.666921c-0.284138,0.369615 -0.284138,0.369615 -0.284138,0.369615c-0.140774,0.199195 -0.236182,0.421491 -0.236182,0.496501c0,0.196354 -0.44876,1.434879 -0.589534,1.657191c-0.071552,0.124029 -0.191069,0.398374 -0.212326,0.594721c-0.119516,0.568677 0.093069,0.470551 0.3531,-0.196346zm-1.677871,2.549233c0.071812,0.493652 0.071812,0.493652 0.307994,-0.568802c0.140774,-0.571635 0.3531,-1.486763 0.496464,-2.055573c0.18847,-0.718797 0.260283,-1.313518 0.260283,-2.153668c0,-1.091245 -0.024108,-1.114362 -0.212579,-0.990153c-0.427251,0.320415 -0.663685,1.212441 -0.759093,2.944618c-0.045106,0.892199 -0.093069,1.784225 -0.140766,1.980595c-0.023856,0.199179 0,0.571619 0.047697,0.842983zm0.047964,-6.337014c0.09281,0.245429 0.188478,0.444609 0.188478,0.444609c0.023848,0 0.140506,-0.150136 0.236174,-0.346482c0.119509,-0.173112 0.307987,-0.372291 0.379546,-0.444476c0.28154,-0.225255 0.353092,-0.918102 0.116918,-1.388652c-0.188478,-0.421491 -0.70879,-0.892183 -0.804458,-0.742047c-0.047697,0.049059 -0.116658,0.519751 -0.164622,1.065295c-0.095401,0.817033 -0.095401,1.065405 0.047964,1.411754zm-0.143365,-5.67007c0.047704,0.0492 0.095401,0.023117 0.095401,-0.051869c0,-0.098259 -0.047697,-0.196386 -0.095401,-0.245437c-0.071812,-0.052017 -0.116925,-0.025942 -0.116925,0.072184c0,0.074994 0.045113,0.173253 0.116925,0.225122zm-7.659039,6.657398c0.329244,0.026075 0.329244,0.026075 0.329244,0.026075c0.331842,0 0.663685,-0.320556 0.663685,-0.594721c0,-0.173253 -0.023848,-0.173253 -0.992929,0.568646zm0.140774,-0.692855c0,0.075166 0.047704,0.150136 0.119516,0.150136c0.116665,0 0.4485,-0.444609 0.376948,-0.519594c-0.071812,-0.101069 -0.496464,0.222289 -0.496464,0.369459zm0.260283,-1.706227c0.355698,0.493785 0.52032,0.542844 0.70879,0.222289c0.191069,-0.297282 0.023856,-0.496477 -0.544421,-0.568661c-0.472356,-0.075142 -0.472356,-0.075142 -0.164369,0.346373zm-0.260283,-1.388527c0,0.051869 0.167213,0.173096 0.355691,0.274165c0.87342,0.470559 1.040633,0.470559 1.016777,0.023141c0,-0.271379 -0.355691,-0.866116 -0.496464,-0.866116c-0.167213,0 -0.876004,0.470551 -0.876004,0.56881zm1.277067,3.516269c0.26003,0 0.283878,-0.075009 0.071552,-0.196237c-0.095661,-0.026075 -0.188478,0 -0.212326,0.072184c-0.047964,0.07497 0.023848,0.124053 0.140774,0.124053zm0.188478,-5.817263c-0.164629,-0.124201 -0.377215,-0.173245 -0.472616,-0.124201c-0.164622,0.098259 -0.140774,0.124201 0.095401,0.199172c0.116925,0.049216 0.355958,0.098267 0.472616,0.121384c0.140774,0 0.140774,-0.0492 -0.095401,-0.196354zm-0.021257,0.892027c0.140506,0 0.164622,-0.025942 0.068961,-0.100936c-0.068961,-0.023101 -0.164629,-0.023101 -0.212333,0.02595c-0.023848,0.049044 0.047704,0.098126 0.143372,0.074986zm0.140506,0.568818c-0.331835,0 -0.331835,0.023094 -0.140506,0.222289c0.236174,0.222296 0.305136,0.248223 0.400804,0.098111c0.164615,-0.196237 0.047697,-0.320399 -0.260297,-0.320399zm0.472623,-2.797495c-0.095668,-0.124186 -0.119516,0.098126 -0.07156,0.369482c0.023848,0.173253 0.119257,0.323365 0.16722,0.323365c0.09281,0 0.023848,-0.545677 -0.095661,-0.692847zm0.756487,3.268007c-0.047697,0.023141 0.071812,0.173253 0.212586,0.297454c0.143365,0.124053 0.260023,0.173104 0.260023,0.098111c0,-0.173229 -0.400796,-0.49661 -0.472609,-0.395565zm-0.591872,0.173253c-0.212326,0.173269 -0.09281,0.617854 0.214925,0.692863c0.164622,0.049051 0.424912,0.248246 0.589534,0.444593c0.143365,0.199195 0.260023,0.274337 0.260023,0.199195c0,-0.248239 -0.944965,-1.43772 -1.064481,-1.336651zm0.96908,2.055597c-0.140766,-0.398523 -0.305395,-0.59476 -0.613389,-0.718946c-0.236174,-0.098111 -0.472609,-0.150112 -0.544161,-0.124037c-0.071812,0.025927 0.212326,0.346349 0.615981,0.718782c0.756487,0.643804 0.756487,0.643804 0.54157,0.124201zm1.25555,-3.813723c-0.047704,0 -0.095668,0.098126 -0.095668,0.196237c0,0.124186 0.047964,0.199195 0.095668,0.199195c0.068961,0 0.116925,-0.075009 0.116925,-0.199195c0,-0.098111 -0.047964,-0.196237 -0.116925,-0.196237zm-0.214917,2.029506c0,0.173229 0.403395,0.049059 0.568017,-0.173253c0.236182,-0.372424 0.212326,-0.470551 -0.095661,-0.470551c-0.212326,0 -0.472356,0.346514 -0.472356,0.643804zm0.687533,-5.346728c-0.071812,0.320423 -0.119516,0.591778 -0.095661,0.617861c0.071805,0.098126 0.26029,-0.643788 0.26029,-0.941227c0,-0.124053 -0.07182,0.026083 -0.164629,0.323365zm1.22911,5.000223c-0.119516,0 -0.212333,0.049216 -0.212333,0.147303c0,0.075009 0.068961,0.124209 0.140514,0.124209c0.095661,0 0.188478,-0.0492 0.212586,-0.124209c0.047704,-0.098087 -0.024108,-0.147303 -0.140766,-0.147303zm-0.284146,4.653858c0.140774,0.447575 0.3531,0.8661 0.472616,0.967169c0.119516,0.075009 0.355691,0.421507 0.496464,0.767989c0.140774,0.346365 0.284138,0.617728 0.307994,0.617728c0.116658,0 -0.119516,-2.277744 -0.284138,-2.970725c-0.143372,-0.594588 -0.188485,-1.140281 -0.164629,-2.006381c0.021257,-0.643788 0,-1.212598 -0.047697,-1.261649c-0.023856,-0.049059 -0.188478,-0.049059 -0.331842,0c-0.26029,0.098111 -0.284138,0.173253 -0.284138,0.71893c0,0.418533 -0.047711,0.643804 -0.164629,0.741891c-0.331835,0.22232 -0.307987,1.483962 0,2.425047zm-0.684935,-3.317066c-0.047704,-0.372432 -0.095401,-0.421491 -0.355691,-0.421491c-0.307994,0 -0.307994,0.025942 -0.284138,0.545544c0,0.320556 0.047957,0.69298 0.071805,0.866092c0.023856,0.173253 0.116925,0.346482 0.212333,0.372432c0.18847,0.124201 0.400796,-0.741891 0.355691,-1.362577zm-0.355691,2.500033c-0.212333,-0.297306 -0.355691,-0.617728 -0.376955,-0.692847c0,-0.098111 -0.119509,-0.346349 -0.26003,-0.568661c-0.143365,-0.222296 -0.307987,-0.496618 -0.379799,-0.594744c-0.236174,-0.346482 -0.188478,-0.049044 0.071812,0.718797c0.164622,0.519727 0.448508,0.990286 0.780343,1.385827c0.613382,0.66973 0.684942,0.545568 0.164629,-0.248372zm-0.376955,1.215407c0.257439,0 0.236182,-0.025927 -0.119509,-0.421468c-0.236182,-0.248262 -0.400804,-0.519618 -0.400804,-0.643811c0,-0.098103 -0.307994,-0.447434 -0.663678,-0.767856c-0.353107,-0.323357 -0.684949,-0.64378 -0.732646,-0.742024c-0.047964,-0.124053 -0.071812,-0.124053 -0.071812,0.023117c0,0.150136 -0.116665,0.173229 -0.496464,0.098111c-0.26003,-0.049067 -0.472356,-0.049067 -0.472356,-0.022984c0,0.049059 0.095401,0.346365 0.191069,0.64378c0.164629,0.493676 0.236174,0.59476 0.756494,0.790981c0.329251,0.124186 0.849557,0.421484 1.181399,0.64378c0.307994,0.225278 0.684942,0.398374 0.828307,0.398374zm-3.690168,0.84015c0.095661,0 0.236434,-0.049044 0.331835,-0.124162c0.164629,-0.17312 0.024115,-0.17312 -0.283878,0c-0.140774,0.075119 -0.164622,0.098236 -0.047957,0.124162zm-0.26003,-0.617854c0.236182,-0.10092 0.992929,-0.199179 1.680462,-0.199179c1.298072,-0.023117 1.558354,-0.098087 1.038034,-0.248239c-0.164615,-0.049044 -0.54157,-0.173253 -0.849557,-0.297306c-0.544168,-0.222296 -1.656614,-0.147303 -1.773279,0.100959c-0.024108,0.049177 -0.143365,0.075119 -0.260283,0.049177c-0.236182,-0.075127 -0.472616,0.124068 -0.544168,0.519618c-0.095661,0.320399 0.071552,0.346482 0.70879,0.07497zm-1.890197,0.56881c0.047704,0.199195 0.284138,0.222296 0.472616,0.049044c0.116658,-0.098103 0.116658,-0.147146 0,-0.297282c-0.095661,-0.147326 -0.164622,-0.147326 -0.307987,-0.023117c-0.095661,0.072184 -0.164629,0.196237 -0.164629,0.271356zm-0.756494,1.7322c0.092817,0 0.140521,0.075009 0.092817,0.222312c-0.021264,0.101069 -0.092817,0.199179 -0.140774,0.199179c-0.071552,0 -0.116665,-0.098111 -0.116665,-0.199179c0,-0.121228 0.068961,-0.222312 0.164622,-0.222312z" stroke-opacity="null" stroke-width="1.5" stroke="null" fill="#66b5ab"/>
 </g>
</svg>