<svg width="24" height="24" xmlns="http://www.w3.org/2000/svg">

 <g>
  <title>background</title>
  <rect fill="none" id="canvas_background" height="26" width="26" y="-1" x="-1"/>
  <g display="none" overflow="visible" y="0" x="0" height="100%" width="100%" id="canvasGrid">
   <rect fill="url(#gridpattern)" stroke-width="0" y="0" x="0" height="100%" width="100%"/>
  </g>
 </g>
 <g>
  <title>Layer 1</title>
  <path id="svg_2" d="m2.414249,10.017481c0.000534,-0.181213 0.182331,-1.292276 0.404142,-2.46904c0.691641,-3.669366 0.701815,-3.685559 1.57996,-2.516051l0.519546,0.691931l1.51941,-0.684357c2.009704,-0.905183 4.407747,-1.24004 6.612108,-0.923291c0.935728,0.134463 1.928603,0.35301 2.206392,0.485659c0.55152,0.263354 0.516167,0.489519 -0.362853,2.321271c-0.481771,1.003951 -0.528015,1.032564 -1.36022,0.841688c-1.416441,-0.324861 -3.722816,-0.222537 -4.836344,0.214571l-1.04404,0.409846l0.732839,0.682499c0.403064,0.375385 0.631394,0.73845 0.507407,0.806819c-0.123992,0.068371 -1.632536,0.20163 -3.352317,0.296118c-2.580255,0.141776 -3.126732,0.114221 -3.126029,-0.157664l-0.000001,-0.000001zm13.286291,10.117194l-1.117745,-1.320918l1.017714,-0.878078c1.047459,-0.903731 1.802901,-2.17256 2.135718,-3.587139l0.189928,-0.807241l-1.095441,0.156286c-0.602493,0.085969 -1.099149,0.074798 -1.103678,-0.024812c-0.021154,-0.465056 2.843385,-5.049456 3.121821,-4.996161c0.4378,0.083795 4.879538,3.516331 4.879538,3.770848c0,0.113598 -0.466811,0.273148 -1.037349,0.354549l-1.037351,0.147999l-0.102381,1.578352c-0.131315,2.024299 -1.326819,4.360616 -2.991294,5.845743c-0.666655,0.594831 -1.33127,1.081504 -1.476918,1.081504c-0.145651,0 -0.767802,-0.594424 -1.382562,-1.320932l0,-0.000001zm-10.089894,3.702435c0,-0.146056 0.175604,-0.56854 0.39023,-0.938861c0.3894,-0.671878 0.387146,-0.67514 -1.064565,-1.535168c-2.27131,-1.345571 -3.959577,-3.733879 -4.490611,-6.352659l-0.174095,-0.858549l1.241303,-0.151802c2.558802,-0.312933 2.582168,-0.303474 3.094632,1.252592c0.345811,1.050033 0.771127,1.679297 1.687953,2.497333c0.674109,0.601478 1.319841,1.041648 1.434962,0.978167c0.115117,-0.06348 0.28174,-0.438574 0.370275,-0.833547c0.088534,-0.394973 0.273147,-0.718136 0.41025,-0.718136c0.314771,0 3.278962,4.170158 3.326021,4.679194c0.031427,0.33998 -1.570935,0.928628 -5.746938,2.111226c-0.266282,0.075406 -0.479414,0.017717 -0.479414,-0.129791l-0.000001,0.000001z" stroke-width="0" fill="#b3b3b3"/>
  <path id="svg_3" d="m4.587887,20.254433c0.000034,-0.012903 0.011583,-0.092011 0.025675,-0.175798c0.043939,-0.261262 0.044586,-0.262415 0.100373,-0.179145l0.033006,0.049266l0.096527,-0.048727c0.127675,-0.06445 0.28002,-0.088292 0.420061,-0.065739c0.059446,0.009574 0.122522,0.025135 0.14017,0.034579c0.035038,0.018751 0.032792,0.034854 -0.023052,0.165276c-0.030606,0.071482 -0.033544,0.073519 -0.086413,0.059929c-0.089985,-0.02313 -0.236507,-0.015845 -0.307248,0.015278l-0.066327,0.029181l0.046557,0.048594c0.025606,0.026728 0.040112,0.052578 0.032235,0.057446c-0.007877,0.004868 -0.103713,0.014356 -0.21297,0.021084c-0.163921,0.010095 -0.198638,0.008133 -0.198594,-0.011226l0,0zm0.844066,0.720353l-0.071009,-0.09405l0.064654,-0.06252c0.066544,-0.064346 0.114537,-0.154688 0.13568,-0.255407l0.012066,-0.057476l-0.069592,0.011128c-0.038276,0.006121 -0.069828,0.005326 -0.070116,-0.001767c-0.001344,-0.033112 0.180638,-0.359525 0.198326,-0.355731c0.027813,0.005966 0.309992,0.250366 0.309992,0.268487c0,0.008088 -0.029656,0.019448 -0.065902,0.025244l-0.065902,0.010538l-0.006504,0.11238c-0.008342,0.144132 -0.084292,0.310479 -0.190034,0.416222c-0.042352,0.042352 -0.084574,0.077004 -0.093827,0.077004c-0.009253,0 -0.048778,-0.042323 -0.087833,-0.094051l0,0zm-0.641002,0.263616c0,-0.010399 0.011156,-0.04048 0.024791,-0.066848c0.024738,-0.047838 0.024595,-0.048071 -0.067631,-0.109305c-0.144294,-0.095806 -0.251548,-0.265855 -0.285284,-0.452315l-0.01106,-0.061129l0.078859,-0.010808c0.162558,-0.022281 0.164043,-0.021608 0.196599,0.089186c0.021969,0.074763 0.048989,0.119567 0.107234,0.177812c0.042825,0.042826 0.083848,0.074166 0.091162,0.069646c0.007313,-0.00452 0.017899,-0.031227 0.023523,-0.059349c0.005624,-0.028122 0.017353,-0.051132 0.026063,-0.051132c0.019997,0 0.208309,0.296919 0.211299,0.333162c0.001997,0.024207 -0.0998,0.066119 -0.365098,0.150321c-0.016917,0.005369 -0.030457,0.001261 -0.030457,-0.009241l0,0z" fill-opacity="null" stroke-opacity="null" stroke-width="1.5" stroke="null" fill="#b3b3b3"/>
 </g>
</svg>