<svg width="511.999" height="511.999" xmlns="http://www.w3.org/2000/svg" class="hovered-paths">

 <g>
  <title>background</title>
  <rect fill="none" id="canvas_background" height="26" width="26" y="-1" x="-1"/>
 </g>
 <g>
  <title>Layer 1</title>
  <g id="svg_1" transform="matrix(6.12323e-17,1,-1,6.12323e-17,511.999,-2.84217e-14) ">
   <g id="svg_2">
    <g id="svg_3">
     <path id="svg_4" fill="#bf6ee0" class="hovered-path active-path" d="m507.604,443.959l-104.033,-104.019l43.184,-43.184c9.409,-9.408 2.76,-25.605 -10.605,-25.605l-150,0c-8.291,0 -15,6.709 -15,15l0,150c0,13.324 16.158,20.052 25.605,10.605l43.198,-43.169l104.004,104.018c5.856,5.856 15.352,5.859 21.21,0.002l42.437,-42.437c5.832,-5.832 5.88,-15.331 0,-21.211z"/>
    </g>
   </g>
   <g id="svg_5">
    <g id="svg_6">
     <path id="svg_7" fill="#bf6ee0" class="hovered-path active-path" d="m215.244,65.243l-43.184,43.184l-104.019,-104.033c-5.856,-5.856 -15.349,-5.862 -21.211,0l-42.436,42.436c-5.868,5.868 -5.844,15.382 0,21.226l104.034,104.004l-43.184,43.184c-9.409,9.408 -2.76,25.605 10.605,25.605l150,0c8.291,0 15,-6.709 15,-15.001l0,-150c0,-13.283 -16.12,-20.09 -25.605,-10.605z"/>
    </g>
   </g>
  </g>
 </g>
</svg>