<?xml version="1.0" encoding="utf-8"?>
<!-- Generator: Adobe Illustrator 19.1.0, SVG Export Plug-In . SVG Version: 6.00 Build 0)  -->
<svg version="1.1" id="Слой_1" xmlns="http://www.w3.org/2000/svg" xmlns:xlink="http://www.w3.org/1999/xlink" x="0px" y="0px"
	 viewBox="0 0 500 500" style="enable-background:new 0 0 500 500;" xml:space="preserve">
<style type="text/css">
	.st0{fill:#5A7079;}
</style>
<g>
	<path class="st0" d="M457.8,250c0,121.1-93.1,219.2-207.8,219.2S42.2,371.1,42.2,250S135.2,30.8,250,30.8S457.8,128.9,457.8,250z
		 M250,48.8C144.6,48.8,59.2,138.9,59.2,250S144.6,451.2,250,451.2S440.8,361.1,440.8,250S355.4,48.8,250,48.8z"/>
	<g>
		<g>
			<path class="st0" d="M249.1,163.8c0,0,27.4-13.8,27.7-16.9c2.2-24.5,40-61.5,47.4-61.4c1.3,1.2-7.4,36-11,44.4
				c-2.9,7-10.8,22.8-17.2,27.2c-2.9,2-14.3,3.6-21.4,6.1c-8,2.7-11.6,6.3-12.7,8.9c-2,5.1-1.3,58.2,0,58.2c3.5,0,24-15.9,24-15.9
				s32.5,0.9,33.4-1.7c2.2-6.4,14.8-20.1,29.3-31.4c19-14.8,40.8-26.9,41.9-26.7c1.2,0.2-11,26.5-25.5,46.1
				c-10.4,14-22.6,23.2-29,23.9c-15.5,1.7-46.7,1.2-46.7,1.2l-27,19.9c0,0-1.9,55.7-0.3,56.4c1.5,0.7,15-9.4,18.9-11
				c3.9-1.5,45.9-0.2,48.3-1.2s9.3-12.1,12.8-16s26.2-16.9,37.5-21.8c11.3-4.9,36.1-10.1,37.6-8.9c1.5,1.2-42.2,54-54.2,56.9
				s-71.7,2.6-77.9,4.6s-21.6,13-22.6,15.7s-1.9,69,0,69.9c1.9,0.8,14.3-10.6,20.6-13.5c6.2-2.9,20.2-3.7,24-4.7
				c3.7-1,13.4-14.2,26.3-22.1c9.5-5.9,46.1-10.8,55.3-5c3.8,2.4-51.6,39.5-59.2,41.2s-37.2-0.2-41.9,1.5
				c-4.7,1.7-22.4,15.5-24,23.6c-1.5,8.1,0,43.9,0,43.9h-14.2V163.8H249.1z"/>
			<path class="st0" d="M250.9,163.8c0,0-27.4-13.8-27.7-16.9c-2.2-24.5-40-61.5-47.4-61.4c-1.3,1.2,7.4,36,11,44.4
				c2.9,7,10.8,22.8,17.2,27.2c2.9,2,14.3,3.6,21.4,6.1c8,2.7,11.6,6.3,12.7,8.9c2,5.1,1.3,58.2,0,58.2c-3.5,0-24-15.9-24-15.9
				s-32.5,0.9-33.4-1.7c-2.2-6.4-14.8-20.1-29.3-31.4c-19-14.8-40.8-26.9-41.9-26.7c-1.2,0.2,11,26.5,25.5,46.1
				c10.4,14,22.6,23.2,29,23.9c15.5,1.7,46.7,1.2,46.7,1.2l27,19.9c0,0,1.9,55.7,0.3,56.4c-1.5,0.7-15-9.4-18.9-11
				c-3.9-1.5-45.9-0.2-48.3-1.2c-2.4-1-9.3-12.1-12.8-16s-26.2-16.9-37.5-21.8c-11.3-4.9-36.1-10.1-37.6-8.9
				c-1.5,1.2,42.2,54,54.2,56.9s71.7,2.6,77.9,4.6s21.6,13,22.6,15.7s1.9,69,0,69.9c-1.9,0.8-14.3-10.6-20.6-13.5
				c-6.2-2.9-20.2-3.7-24-4.7c-3.7-1-13.4-14.2-26.3-22.1c-9.5-5.9-46.1-10.8-55.3-5c-3.8,2.4,51.6,39.5,59.2,41.2
				c7.6,1.7,37.2-0.2,41.9,1.5c4.7,1.7,22.4,15.5,24,23.6c1.5,8.1,0,43.9,0,43.9h14.2V163.8H250.9z"/>
		</g>
	</g>
</g>
</svg>
