<svg width="24" height="24" xmlns="http://www.w3.org/2000/svg">

 <g>
  <title>background</title>
  <rect fill="none" id="canvas_background" height="26" width="26" y="-1" x="-1"/>
  <g display="none" overflow="visible" y="0" x="0" height="100%" width="100%" id="canvasGrid">
   <rect fill="url(#gridpattern)" stroke-width="0" y="0" x="0" height="100%" width="100%"/>
  </g>
 </g>
 <g>
  <title>Layer 1</title>
  <path stroke="null" transform="rotate(135 18.455101013183594,6.105424880981444) " id="svg_9" d="m17.64662,9.63789l2.81985,-2.18182l-5.45206,0l-5.45205,0l0,-1.35064l0,-1.35065l5.38951,0c2.96422,0 5.3895,-0.06846 5.3895,-0.15213c0,-0.08367 -1.18006,-1.06549 -2.62233,-2.18182l-2.62234,-2.02969l2.42385,0l2.42382,0l3.70174,2.85988l3.70173,2.85988l-3.70884,2.8544l-3.70883,2.85441l-2.55171,0l-2.55172,0l2.81987,-2.18182l0.00001,0z" fill-opacity="null" stroke-opacity="null" stroke-width="1.5" fill="#9d56ea"/>
  <path stroke="null" transform="rotate(-45 5.97296476364136,18.431076049804688) " id="svg_10" d="m5.164486,21.96354l2.81985,-2.18182l-5.45206,0l-5.45205,0l0,-1.35064l0,-1.35065l5.38951,0c2.96422,0 5.3895,-0.06846 5.3895,-0.15213c0,-0.08367 -1.18006,-1.06549 -2.62233,-2.18182l-2.62234,-2.02969l2.42385,0l2.42382,0l3.70174,2.85988l3.70173,2.85988l-3.70884,2.8544l-3.70883,2.85441l-2.55171,0l-2.55172,0l2.81987,-2.18182l0.00001,0z" fill-opacity="null" stroke-opacity="null" stroke-width="1.5" fill="#9d56ea"/>
 </g>
</svg>