<svg width="800" height="800" xmlns="http://www.w3.org/2000/svg">
 <g id="Layer_1">
  <title>Layer 1</title>
  <path fill="#dedede" stroke="#000" stroke-width="0" opacity="undefined" d="m133.5,798c-70.44199,0 -127.5,-57.05801 -127.5,-127.5c0,-70.44199 57.05801,-127.5 127.5,-127.5c70.44199,0 127.5,57.05801 127.5,127.5c0,70.44199 -57.05801,127.5 -127.5,127.5z" id="svg_1"/>
  <ellipse id="svg_2" cy="627" cx="159" stroke="#000" fill="#dedede"/>
  <path id="svg_3" d="m307,603l571,0l0,133l-571,0l0,-133z" opacity="undefined" fill="#dedede"/>
  <rect id="svg_5" height="0" width="2" y="244" x="492" stroke="#000" fill="#dedede"/>
  <path transform="rotate(-45 459.5 337.5)" fill="#c300ff" opacity="undefined" d="m174,271l571,0l0,133l-571,0l0,-133z" id="svg_6"/>
  <rect transform="rotate(-90 134.5 198.5)" id="svg_7" height="133" width="571" y="132" x="-151" fill="#dedede"/>
 </g>

</svg>