<svg width="23.999999999999996" height="23.999999999999996" xmlns="http://www.w3.org/2000/svg">

 <g>
  <title>background</title>
  <rect fill="none" id="canvas_background" height="26" width="26" y="-1" x="-1"/>
  <g display="none" overflow="visible" y="0" x="0" height="100%" width="100%" id="canvasGrid">
   <rect fill="url(#gridpattern)" stroke-width="0" y="0" x="0" height="100%" width="100%"/>
  </g>
 </g>
 <g>
  <title>Layer 1</title>
  <path id="svg_4" d="m-66.545148,6.007844l0.236239,-0.237045l-0.456756,0l-0.456755,0l0,-0.146742l0,-0.146742l0.451515,0c0.248333,0 0.451515,-0.007438 0.451515,-0.016528c0,-0.00909 -0.098861,-0.115761 -0.21969,-0.237045l-0.219691,-0.220517l0.203061,0l0.20306,0l0.310119,0.310714l0.310119,0.310714l-0.310714,0.310119l-0.310714,0.310119l-0.213774,0l-0.213775,0l0.236239,-0.237045l0,0z" fill-opacity="null" stroke-opacity="0" stroke-width="1.5" stroke="#000000" fill="#e63900"/>
  <path stroke="#000000" transform="rotate(-90 5.0434789657592765,12.579710006713869) " id="svg_5" d="m4.015737,15.536232l3.584573,-1.826086l-6.930597,0l-6.930582,0l0,-1.130434l0,-1.130435l6.851075,0c3.768086,0 6.851069,-0.057296 6.851069,-0.127324c0,-0.070027 -1.500063,-0.891766 -3.33347,-1.826086l-3.33348,-1.698764l3.081154,0l3.081143,0l4.705603,2.393595l4.705601,2.393594l-4.714628,2.389014l-4.714626,2.389014l-3.243706,0l-3.243714,0l3.584583,-1.826087l0.000002,0z" fill-opacity="null" stroke-opacity="0" stroke-width="1.5" fill="#e63900"/>
  <path transform="rotate(90 18.376810073852543,11.420289993286135) " id="svg_6" d="m17.34907,14.735177l3.584573,-2.04743l-6.930597,0l-6.930582,0l0,-1.267456l0,-1.267458l6.851074,0c3.768086,0 6.851069,-0.06424 6.851069,-0.142757c0,-0.078515 -1.500063,-0.999859 -3.333469,-2.04743l-3.333481,-1.904675l3.081155,0l3.081143,0l4.705603,2.683728l4.705601,2.683726l-4.714628,2.678592l-4.714626,2.678591l-3.243706,0l-3.243714,0l3.584583,-2.047431l0.000002,0z" fill-opacity="null" stroke-opacity="0" stroke-width="1.5" stroke="#000000" fill="#e63900"/>
 </g>
</svg>