<?xml version="1.0" encoding="UTF-8"?>
<svg width="180px" height="36px" viewBox="0 0 180 36" version="1.1" xmlns="http://www.w3.org/2000/svg" xmlns:xlink="http://www.w3.org/1999/xlink">
    <!-- Generator: Sketch 60.1 (88133) - https://sketch.com -->
    <title>Group 2</title>
    <desc>Created with Sketch.</desc>
    <g id="Page-1" stroke="none" stroke-width="1" fill="none" fill-rule="evenodd">
        <g id="Landing" transform="translate(-206.000000, -113.000000)">
            <g id="Group-2" transform="translate(208.000000, 114.000000)">
                <g id="Group-8" transform="translate(0.000000, 1.000000)" stroke-linecap="round" stroke-width="2.1">
                    <path d="M5.91927926,15.6619193 L16.6966968,25.9707535 C18.0935611,27.3068845 18.1427951,29.522415 16.8066641,30.9192793 C16.146384,31.6095721 15.2326527,32 14.2774176,32 L3.5,32 C1.56700338,32 2.36723813e-16,30.4329966 0,28.5 L0,18.1911658 C-1.12490223e-15,16.2581692 1.56700338,14.6911658 3.5,14.6911658 C4.4013399,14.6911658 5.26793332,15.0388927 5.91927926,15.6619193 Z" id="Path-9-Copy" stroke="#FFFFFF"></path>
                    <line x1="7" y1="6" x2="28" y2="26" id="Path-10-Copy" stroke="#E83C3C"></line>
                    <path d="M18.7397744,1.77635684e-15 L31.1188183,12.0157371 C32.5047671,13.3631873 32.5359763,15.579045 31.1885261,16.9649937 C30.5295426,17.6428054 29.6243946,18.0252194 28.6790439,18.0252194 L17,18.0252194" id="Path" stroke="#FFFFFF" transform="translate(24.589523, 9.012610) rotate(-180.000000) translate(-24.589523, -9.012610) "></path>
                </g>
                <g id="Group-55" transform="translate(46.000000, 0.000000)">
                    <g id="Group-57">
                        <g id="Group-56" transform="translate(56.400000, 0.000000)">
                            <path d="M1.76,0.2 L73.14,0.2 C74.1120212,0.2 74.9,0.98797884 74.9,1.96 L74.9,29.44 C74.9,30.4120212 74.1120212,31.2 73.14,31.2 L1.76,31.2 C0.78797884,31.2 5.22606417e-15,30.4120212 0,29.44 L0,1.96 C1.03006345e-16,0.98797884 0.78797884,0.2 1.76,0.2 Z" id="Rectangle" fill="#E83C3C"></path>
                            <path d="M8.788,26.186 C10.3793333,26.186 11.5573333,25.6848333 12.322,24.6825 C13.0866667,23.6801667 13.469,22.3523333 13.469,20.699 L13.469,20.699 L13.469,18.219 L12.105,18.219 L12.105,20.792 C12.105,22.032 11.8415,23.0188333 11.3145,23.7525 C10.7875,24.4861667 9.95566667,24.853 8.819,24.853 C7.68233333,24.853 6.8505,24.4861667 6.3235,23.7525 C5.7965,23.0188333 5.533,22.032 5.533,20.792 L5.533,20.792 L5.533,9.508 C5.533,8.268 5.7965,7.276 6.3235,6.532 C6.8505,5.788 7.68233333,5.416 8.819,5.416 C9.95566667,5.416 10.7875,5.788 11.3145,6.532 C11.8415,7.276 12.105,8.268 12.105,9.508 L12.105,9.508 L12.105,11.399 L13.469,11.399 L13.469,9.601 C13.469,7.94766667 13.0866667,6.61983333 12.322,5.6175 C11.5573333,4.61516667 10.3793333,4.114 8.788,4.114 C7.19666667,4.114 6.01866667,4.61516667 5.254,5.6175 C4.48933333,6.61983333 4.107,7.94766667 4.107,9.601 L4.107,9.601 L4.107,20.699 C4.107,22.3523333 4.48933333,23.6801667 5.254,24.6825 C6.01866667,25.6848333 7.19666667,26.186 8.788,26.186 Z M22.3815,26.186 C23.9935,26.186 25.1973333,25.69 25.993,24.698 C26.7886667,23.706 27.1865,22.373 27.1865,20.699 L27.1865,20.699 L27.1865,9.601 C27.1865,7.927 26.7886667,6.594 25.993,5.602 C25.1973333,4.61 23.9935,4.114 22.3815,4.114 C20.8108333,4.114 19.6276667,4.61516667 18.832,5.6175 C18.0363333,6.61983333 17.6385,7.94766667 17.6385,9.601 L17.6385,9.601 L17.6385,20.699 C17.6385,22.3523333 18.0363333,23.6801667 18.832,24.6825 C19.6276667,25.6848333 20.8108333,26.186 22.3815,26.186 Z M22.3815,24.884 C21.2448333,24.884 20.4078333,24.5171667 19.8705,23.7835 C19.3331667,23.0498333 19.0645,22.0526667 19.0645,20.792 L19.0645,20.792 L19.0645,9.508 C19.0645,8.24733333 19.3331667,7.25016667 19.8705,6.5165 C20.4078333,5.78283333 21.2448333,5.416 22.3815,5.416 C23.5388333,5.416 24.3913333,5.78283333 24.939,6.5165 C25.4866667,7.25016667 25.7605,8.24733333 25.7605,9.508 L25.7605,9.508 L25.7605,20.792 C25.7605,22.0526667 25.4866667,23.0498333 24.939,23.7835 C24.3913333,24.5171667 23.5388333,24.884 22.3815,24.884 Z M32.441,26 L33.526,21.195 L40.284,21.195 L41.369,26 L42.795,26 L37.959,4.269 L35.882,4.269 L31.139,26 L32.441,26 Z M40.067,19.955 L33.743,19.955 L36.874,5.912 L40.067,19.955 Z M51.4905,26.186 C53.0818333,26.186 54.2598333,25.6848333 55.0245,24.6825 C55.7891667,23.6801667 56.1715,22.3523333 56.1715,20.699 L56.1715,20.699 L56.1715,18.219 L54.8075,18.219 L54.8075,20.792 C54.8075,22.032 54.544,23.0188333 54.017,23.7525 C53.49,24.4861667 52.6581667,24.853 51.5215,24.853 C50.3848333,24.853 49.553,24.4861667 49.026,23.7525 C48.499,23.0188333 48.2355,22.032 48.2355,20.792 L48.2355,20.792 L48.2355,9.508 C48.2355,8.268 48.499,7.276 49.026,6.532 C49.553,5.788 50.3848333,5.416 51.5215,5.416 C52.6581667,5.416 53.49,5.788 54.017,6.532 C54.544,7.276 54.8075,8.268 54.8075,9.508 L54.8075,9.508 L54.8075,11.399 L56.1715,11.399 L56.1715,9.601 C56.1715,7.94766667 55.7891667,6.61983333 55.0245,5.6175 C54.2598333,4.61516667 53.0818333,4.114 51.4905,4.114 C49.8991667,4.114 48.7211667,4.61516667 47.9565,5.6175 C47.1918333,6.61983333 46.8095,7.94766667 46.8095,9.601 L46.8095,9.601 L46.8095,20.699 C46.8095,22.3523333 47.1918333,23.6801667 47.9565,24.6825 C48.7211667,25.6848333 49.8991667,26.186 51.4905,26.186 Z M61.86,26 L61.86,15.801 L68.618,15.801 L68.618,26 L70.075,26 L70.075,4.3 L68.618,4.3 L68.618,14.499 L61.86,14.499 L61.86,4.3 L60.434,4.3 L60.434,26 L61.86,26 Z" id="COACH" stroke="#FFFFFF" stroke-width="0.9" fill="#FFFFFF" fill-rule="nonzero"></path>
                        </g>
                        <path d="M5.014,26 C6.626,26 7.82983333,25.5195 8.6255,24.5585 C9.42116667,23.5975 9.819,22.28 9.819,20.606 L9.819,20.606 L9.819,9.694 C9.819,8.02 9.42116667,6.7025 8.6255,5.7415 C7.82983333,4.7805 6.626,4.3 5.014,4.3 L5.014,4.3 L0.24,4.3 L0.24,26 L5.014,26 Z M4.983,24.698 L1.666,24.698 L1.666,5.602 L4.983,5.602 C6.14033333,5.602 6.998,5.96366667 7.556,6.687 C8.114,7.41033333 8.393,8.392 8.393,9.632 L8.393,9.632 L8.393,20.668 C8.393,21.9286667 8.114,22.9155 7.556,23.6285 C6.998,24.3415 6.14033333,24.698 4.983,24.698 L4.983,24.698 Z M18.7625,26.186 C20.3745,26.186 21.5783333,25.69 22.374,24.698 C23.1696667,23.706 23.5675,22.373 23.5675,20.699 L23.5675,20.699 L23.5675,9.601 C23.5675,7.927 23.1696667,6.594 22.374,5.602 C21.5783333,4.61 20.3745,4.114 18.7625,4.114 C17.1918333,4.114 16.0086667,4.61516667 15.213,5.6175 C14.4173333,6.61983333 14.0195,7.94766667 14.0195,9.601 L14.0195,9.601 L14.0195,20.699 C14.0195,22.3523333 14.4173333,23.6801667 15.213,24.6825 C16.0086667,25.6848333 17.1918333,26.186 18.7625,26.186 Z M18.7625,24.884 C17.6258333,24.884 16.7888333,24.5171667 16.2515,23.7835 C15.7141667,23.0498333 15.4455,22.0526667 15.4455,20.792 L15.4455,20.792 L15.4455,9.508 C15.4455,8.24733333 15.7141667,7.25016667 16.2515,6.5165 C16.7888333,5.78283333 17.6258333,5.416 18.7625,5.416 C19.9198333,5.416 20.7723333,5.78283333 21.32,6.5165 C21.8676667,7.25016667 22.1415,8.24733333 22.1415,9.508 L22.1415,9.508 L22.1415,20.792 C22.1415,22.0526667 21.8676667,23.0498333 21.32,23.7835 C20.7723333,24.5171667 19.9198333,24.884 18.7625,24.884 Z M32.945,26 L32.945,5.602 L37.378,5.602 L37.378,4.3 L27.117,4.3 L27.117,5.602 L31.519,5.602 L31.519,26 L32.945,26 Z M40.8965,26 L41.9815,21.195 L48.7395,21.195 L49.8245,26 L51.2505,26 L46.4145,4.269 L44.3375,4.269 L39.5945,26 L40.8965,26 Z M48.5225,19.955 L42.1985,19.955 L45.3295,5.912 L48.5225,19.955 Z" id="Dota" stroke="#FFFFFF" stroke-width="0.9" fill="#FFFFFF" fill-rule="nonzero"></path>
                    </g>
                </g>
            </g>
        </g>
    </g>
</svg>